<svg version="1.1" id="Layer_1" xmlns="http://www.w3.org/2000/svg" xmlns:xlink="http://www.w3.org/1999/xlink" x="0px" y="0px"
	 width="100%" viewBox="0 0 235 214" enable-background="new 0 0 235 214" xml:space="preserve">
<path fill="#FEFEFE" opacity="1.000000" stroke="none" 
	d="
M236.000000,177.000000 
	C236.000000,189.627243 236.000000,202.254486 236.000000,215.000000 
	C201.979187,215.000000 167.958252,215.000000 133.647675,214.633301 
	C155.474823,211.744293 176.741898,206.219315 196.551361,195.864960 
	C202.277344,192.872025 207.735229,189.324112 213.087708,185.694000 
	C214.171295,184.959091 214.225723,182.706772 214.754608,181.154022 
	C213.168640,180.660690 211.604141,179.900009 209.988937,179.770142 
	C208.951141,179.686691 207.837021,180.527359 206.759979,180.960953 
	C168.612457,196.318893 129.123566,201.263428 88.412773,195.717743 
	C59.653706,191.800171 32.604996,182.587982 7.284253,168.314209 
	C5.507246,167.312485 3.109235,167.412369 1.000000,167.000000 
	C1.000000,111.753235 1.000000,56.506466 1.000000,1.000000 
	C38.687164,1.000000 76.374924,1.000000 114.386635,1.370710 
	C112.426064,2.155163 110.105049,2.427264 107.862755,3.004918 
	C88.853279,7.902093 74.722069,17.873896 70.454933,38.463333 
	C69.511627,43.014877 71.190765,44.605297 75.270180,45.056534 
	C81.715530,45.769474 88.218193,46.224979 94.568008,47.453888 
	C99.186653,48.347748 101.463570,46.978626 102.511574,42.553371 
	C104.352142,34.781536 109.721420,30.469233 117.121033,28.455389 
	C129.624741,25.052433 138.717529,31.276152 139.801132,44.070820 
	C140.135696,48.021130 139.853134,52.023701 139.853134,56.361420 
	C137.434189,56.566971 135.116425,56.626762 132.844391,56.980473 
	C122.357780,58.613029 111.645233,59.441582 101.452637,62.187622 
	C76.359032,68.948219 64.634796,85.648727 65.985878,110.973801 
	C66.844543,127.068939 76.678627,139.999084 92.153839,143.456161 
	C108.593704,147.128723 124.262718,145.131760 137.533661,133.428604 
	C139.969727,131.280334 142.350082,129.068893 144.537170,127.085243 
	C148.812332,131.918488 152.694260,136.677612 156.978607,141.041687 
	C160.893188,145.029114 163.032227,144.888962 167.258331,141.249893 
	C172.430649,136.796051 177.579819,132.315231 182.727585,127.832962 
	C187.226288,123.915840 187.591339,122.605415 183.637680,117.987892 
	C177.300278,110.586403 175.253510,102.052147 175.317062,92.580780 
	C175.432190,75.421341 175.476700,58.256401 175.171158,41.100517 
	C174.822098,21.503008 165.219772,9.324180 146.240509,3.774830 
	C142.539627,2.692727 138.749146,1.917027 135.000000,1.000000 
	C168.611206,1.000000 202.222427,1.000000 236.000000,1.000000 
	C236.000000,55.687450 236.000000,110.375069 235.672302,165.390381 
	C234.582886,165.107254 233.912659,164.190628 233.045822,163.931305 
	C219.469742,159.870010 206.507401,161.441422 194.259277,168.521790 
	C193.224762,169.119812 192.666718,170.542068 191.249451,172.432022 
	C194.345306,172.233643 196.137802,172.101913 197.932251,172.006836 
	C204.221420,171.673538 210.513718,171.053299 216.800217,171.104950 
	C224.279938,171.166428 226.513092,173.965500 224.625732,181.198502 
	C222.958542,187.587677 220.464661,193.760941 218.341614,200.031494 
	C217.847168,201.491852 217.376221,202.960175 216.894455,204.424820 
	C217.263016,204.743378 217.631561,205.061920 218.000122,205.380463 
	C219.524185,204.438263 221.541885,203.840729 222.483627,202.491943 
	C225.876144,197.633133 229.143524,192.651093 231.985825,187.457108 
	C233.762070,184.211197 234.690918,180.501556 236.000000,177.000000 
z"/>
<path fill="#010101" opacity="1.000000" stroke="none" 
	d="
M134.666672,1.000000 
	C138.749146,1.917027 142.539627,2.692727 146.240509,3.774830 
	C165.219772,9.324180 174.822098,21.503008 175.171158,41.100517 
	C175.476700,58.256401 175.432190,75.421341 175.317062,92.580780 
	C175.253510,102.052147 177.300278,110.586403 183.637680,117.987892 
	C187.591339,122.605415 187.226288,123.915840 182.727585,127.832962 
	C177.579819,132.315231 172.430649,136.796051 167.258331,141.249893 
	C163.032227,144.888962 160.893188,145.029114 156.978607,141.041687 
	C152.694260,136.677612 148.812332,131.918488 144.537170,127.085243 
	C142.350082,129.068893 139.969727,131.280334 137.533661,133.428604 
	C124.262718,145.131760 108.593704,147.128723 92.153839,143.456161 
	C76.678627,139.999084 66.844543,127.068939 65.985878,110.973801 
	C64.634796,85.648727 76.359032,68.948219 101.452637,62.187622 
	C111.645233,59.441582 122.357780,58.613029 132.844391,56.980473 
	C135.116425,56.626762 137.434189,56.566971 139.853134,56.361420 
	C139.853134,52.023701 140.135696,48.021130 139.801132,44.070820 
	C138.717529,31.276152 129.624741,25.052433 117.121033,28.455389 
	C109.721420,30.469233 104.352142,34.781536 102.511574,42.553371 
	C101.463570,46.978626 99.186653,48.347748 94.568008,47.453888 
	C88.218193,46.224979 81.715530,45.769474 75.270180,45.056534 
	C71.190765,44.605297 69.511627,43.014877 70.454933,38.463333 
	C74.722069,17.873896 88.853279,7.902093 107.862755,3.004918 
	C110.105049,2.427264 112.426064,2.155163 114.855293,1.370710 
	C116.066673,1.000000 117.133339,1.000000 118.846512,1.329645 
	C122.354065,1.737884 125.215118,1.816478 128.463959,1.926659 
	C130.234482,1.638830 131.617249,1.319415 133.000000,1.000000 
	C133.444443,1.000000 133.888901,1.000000 134.666672,1.000000 
M102.532898,104.865532 
	C104.605850,116.262161 111.038010,121.713318 120.768867,119.856819 
	C127.191833,118.631424 131.584137,114.448555 134.887878,108.903107 
	C140.945847,98.734619 140.236008,87.651115 139.820648,75.923393 
	C134.593979,76.347969 129.629898,76.467789 124.757812,77.199844 
	C109.832283,79.442482 101.997055,88.975563 102.532898,104.865532 
z"/>
<path fill="#FF9903" opacity="1.000000" stroke="none" 
	d="
M1.000000,167.333328 
	C3.109235,167.412369 5.507246,167.312485 7.284253,168.314209 
	C32.604996,182.587982 59.653706,191.800171 88.412773,195.717743 
	C129.123566,201.263428 168.612457,196.318893 206.759979,180.960953 
	C207.837021,180.527359 208.951141,179.686691 209.988937,179.770142 
	C211.604141,179.900009 213.168640,180.660690 214.754608,181.154022 
	C214.225723,182.706772 214.171295,184.959091 213.087708,185.694000 
	C207.735229,189.324112 202.277344,192.872025 196.551361,195.864960 
	C176.741898,206.219315 155.474823,211.744293 133.179016,214.633301 
	C130.299988,215.000000 127.599968,215.000000 124.174210,214.689178 
	C119.604523,214.282166 115.760590,214.185974 111.582870,214.067200 
	C110.499390,214.363068 109.749695,214.681534 109.000000,215.000000 
	C106.958336,215.000000 104.916664,215.000000 102.252014,214.645569 
	C100.978706,214.173523 100.332634,214.019028 99.677460,213.943527 
	C61.941605,209.594604 28.985950,194.753922 1.000000,169.000000 
	C1.000000,168.555557 1.000000,168.111099 1.000000,167.333328 
z"/>
<path fill="#FFFEFD" opacity="1.000000" stroke="none" 
	d="
M1.000000,169.468658 
	C28.985950,194.753922 61.941605,209.594604 99.677460,213.943527 
	C100.332634,214.019028 100.978706,214.173523 101.814514,214.645569 
	C68.433830,215.000000 34.867657,215.000000 1.000000,215.000000 
	C1.000000,199.980453 1.000000,184.958878 1.000000,169.468658 
z"/>
<path fill="#FF9A06" opacity="1.000000" stroke="none" 
	d="
M236.000000,176.541931 
	C234.690918,180.501556 233.762070,184.211197 231.985825,187.457108 
	C229.143524,192.651093 225.876144,197.633133 222.483627,202.491943 
	C221.541885,203.840729 219.524185,204.438263 218.000122,205.380463 
	C217.631561,205.061920 217.263016,204.743378 216.894455,204.424820 
	C217.376221,202.960175 217.847168,201.491852 218.341614,200.031494 
	C220.464661,193.760941 222.958542,187.587677 224.625732,181.198502 
	C226.513092,173.965500 224.279938,171.166428 216.800217,171.104950 
	C210.513718,171.053299 204.221420,171.673538 197.932251,172.006836 
	C196.137802,172.101913 194.345306,172.233643 191.249451,172.432022 
	C192.666718,170.542068 193.224762,169.119812 194.259277,168.521790 
	C206.507401,161.441422 219.469742,159.870010 233.045822,163.931305 
	C233.912659,164.190628 234.582886,165.107254 235.672302,165.859039 
	C236.000000,169.361282 236.000000,172.722580 236.000000,176.541931 
z"/>
<path fill="#FFA635" opacity="1.000000" stroke="none" 
	d="
M111.916656,214.089783 
	C115.760590,214.185974 119.604523,214.282166 123.724228,214.689178 
	C120.307091,215.000000 116.614182,215.000000 112.450928,214.771423 
	C111.980583,214.542847 111.916656,214.089783 111.916656,214.089783 
z"/>
<path fill="#202020" opacity="1.000000" stroke="none" 
	d="
M128.076172,1.895072 
	C125.215118,1.816478 122.354065,1.737884 119.246506,1.329645 
	C121.700012,1.000000 124.400032,1.000000 127.562897,1.224293 
	C128.025742,1.448587 128.076172,1.895072 128.076172,1.895072 
z"/>
<path fill="#3C3C3C" opacity="1.000000" stroke="none" 
	d="
M128.463959,1.926659 
	C128.076172,1.895072 128.025742,1.448587 128.012878,1.224293 
	C129.388885,1.000000 130.777786,1.000000 132.583344,1.000000 
	C131.617249,1.319415 130.234482,1.638830 128.463959,1.926659 
z"/>
<path fill="#FFBB72" opacity="1.000000" stroke="none" 
	d="
M111.582870,214.067200 
	C111.916656,214.089783 111.980583,214.542847 111.990295,214.771423 
	C111.250000,215.000000 110.500000,215.000000 109.375000,215.000000 
	C109.749695,214.681534 110.499390,214.363068 111.582870,214.067200 
z"/>
<path fill="#FCFCFC" opacity="1.000000" stroke="none" 
	d="
M102.467468,104.447968 
	C101.997055,88.975563 109.832283,79.442482 124.757812,77.199844 
	C129.629898,76.467789 134.593979,76.347969 139.820648,75.923393 
	C140.236008,87.651115 140.945847,98.734619 134.887878,108.903107 
	C131.584137,114.448555 127.191833,118.631424 120.768867,119.856819 
	C111.038010,121.713318 104.605850,116.262161 102.467468,104.447968 
z"/>
</svg>